<svg xmlns="http://www.w3.org/2000/svg" xmlns:xlink="http://www.w3.org/1999/xlink" version="1.0"
    id="katman_1" x="0px" y="0px" style="enable-background:new 100 100 350 350;"
    xml:space="preserve" viewBox="63.5 173.2 145.8 104.4">
    <style type="text/css">.st0{fill:#FFFFFF;}</style>
    <path class="st0" d="M205.9,218.6c-2.9,0-4.8-1.7-4.8-5.2v-20.1c0-12.8-5.3-19.9-18.9-19.9h-6.3v13.6h1.9c5.4,0,7.9,3,7.9,8.3v17.8  c0,7.7,2.3,10.9,7.3,12.5c-5,1.5-7.3,4.8-7.3,12.5c0,4.4,0,8.8,0,13.2c0,3.7,0,7.3-1,10.9c-1,3.4-2.6,6.6-4.8,9.4  c-1.2,1.6-2.6,3-4.2,4.2v1.8h6.3c13.7,0,18.9-7.1,18.9-19.9v-20.1c0-3.6,1.9-5.2,4.8-5.2h3.6v-13.6L205.9,218.6L205.9,218.6z"></path>
    <path class="st0" d="M162.8,193.8h-19.6c-0.4,0-0.8-0.4-0.8-0.8v-1.5c0-0.4,0.4-0.8,0.8-0.8h19.7c0.4,0,0.8,0.4,0.8,0.8v1.5  C163.6,193.4,163.2,193.8,162.8,193.8z"></path>
    <path class="st0" d="M166.1,213.2h-14.3c-0.4,0-0.8-0.4-0.8-0.8v-1.5c0-0.4,0.4-0.8,0.8-0.8h14.3c0.4,0,0.8,0.4,0.8,0.8v1.5  C166.9,212.7,166.5,213.2,166.1,213.2z"></path>
    <path class="st0" d="M171.7,203.5h-28.6c-0.4,0-0.8-0.4-0.8-0.8v-1.5c0-0.4,0.4-0.8,0.8-0.8h28.5c0.4,0,0.8,0.4,0.8,0.8v1.5  C172.4,203,172.2,203.5,171.7,203.5z"></path>
    <path class="st0" d="M120.5,198.2c1.9,0,3.9,0.2,5.7,0.6v-3.7c0-5.2,2.6-8.3,7.9-8.3h1.9v-13.6h-6.3c-13.7,0-18.9,7.1-18.9,19.9v6.6  C113.9,198.8,117.2,198.2,120.5,198.2z"></path>
    <path class="st0" d="M177.7,247c-1.4-11.4-10-20.9-21.1-23.1c-3.1-0.6-6.2-0.7-9.2-0.2c-0.1,0-0.1-0.1-0.2-0.1  c-4.8-10.3-15.2-17.1-26.5-17.1s-21.6,6.6-26.5,17c-0.1,0-0.1,0.1-0.2,0.1c-3.2-0.4-6.3-0.2-9.5,0.6c-10.9,2.7-19.2,12-20.7,23.3  c-0.2,1.2-0.3,2.3-0.3,3.4c0,3.4,2.3,6.6,5.6,7c4.1,0.6,7.8-2.6,7.7-6.7c0-0.6,0-1.3,0.1-2c0.7-5.7,5-10.6,10.7-11.9  c1.8-0.4,3.5-0.5,5.2-0.3c5.4,0.7,10.7-2.1,13-6.9c1.7-3.6,4.3-6.7,7.8-8.4c3.9-1.9,8.3-2.2,12.3-0.7c4.2,1.5,7.4,4.8,9.3,8.8  c2,3.9,3,6.7,7.3,7.3c1.8,0.3,6.7,0.2,8.5,0.1c3.6,0,7.2,1.3,9.8,3.9c1.7,1.8,2.9,4,3.4,6.6c0.8,4-0.2,8.1-2.6,11.1  c-1.7,2.2-4,3.8-6.5,4.5c-1.2,0.4-2.5,0.4-3.7,0.4c-0.7,0-1.7,0-2.8,0c-3.5,0-11,0-16.7,0c-3.9,0-7-3.1-7-7.1v-13.3v-13  c0-1.1-0.9-2-1.9-2h-2.7c-5.4,0.1-9.7,6.2-9.7,12.7c0,6.5,0,23.6,0,23.6c0,7,5.6,12.7,12.4,12.7c0,0,30.6-0.1,31-0.1  c7-0.7,13.6-4.4,18-10.1C176.6,261.5,178.6,254.4,177.7,247z"></path>
</svg>